<?xml version="1.0" ?><!DOCTYPE svg  PUBLIC '-//W3C//DTD SVG 1.1//EN'  'http://www.w3.org/Graphics/SVG/1.1/DTD/svg11.dtd'><svg enable-background="new 0 0 512 512" height="512px" id="Layer_1" version="1.1" viewBox="0 0 512 512" width="512px" xml:space="preserve" xmlns="http://www.w3.org/2000/svg" xmlns:xlink="http://www.w3.org/1999/xlink"><g><circle cx="256" cy="256" fill="#0E2F48" r="256"/><g><g><path d="M461.375,281.528c-4.364,39.86-99.845,62.11-213.254,49.7c-113.421-12.41-201.83-54.78-197.471-94.641      c4.36-39.855,99.835-62.11,213.255-49.695C377.326,199.298,465.73,241.668,461.375,281.528z" fill="#1C6496"/><path d="M266.195,288.953c-101.06-16.74-180.49-53.225-186.595-84.24c-17.155,8.525-27.575,19.325-28.95,31.875      c-4.359,39.86,84.05,82.23,197.471,94.641c113.409,12.41,208.89-9.84,213.254-49.7c0.121-1.075,0.141-2.155,0.121-3.235      C433.445,298.509,355.311,303.714,266.195,288.953z" fill="#4C8BAA"/><path d="M274.791,188.183c71.279,13.455,124.535,42.966,120.475,67.586c-4.266,25.665-69.2,36.29-145.03,23.725      c-75.845-12.56-133.88-43.55-129.625-69.215c1.92-11.631,16.325-20.155,38.525-24.851      c-62.181,5.875-105.58,24.601-108.485,51.16c-4.359,39.86,84.05,82.23,197.471,94.641c113.409,12.41,208.89-9.84,213.254-49.7      C465.591,242.953,382.926,202.027,274.791,188.183z" fill="#4B8CA7"/><path d="M376.421,257.748c-3.565,21.485-52.65,31.25-109.641,21.806c-57-9.436-100.319-34.506-96.76-55.99      c3.56-21.49,52.655-31.256,109.646-21.815C336.65,211.192,379.976,236.258,376.421,257.748z" fill="#195175"/><path d="M332.541,260.408c-1.795,11.025-35.516,14.71-75.311,8.22c-39.785-6.484-70.59-20.68-68.795-31.71      c1.79-11.03,35.51-14.71,75.305-8.225C303.535,235.178,334.33,249.378,332.541,260.408z" fill="#0A2B42"/><path d="M452.801,256.868c-16.63,34.17-105.945,52.24-210.58,40.795c-90.061-9.854-164.3-38.604-188.896-69.985      c-1.39,2.865-2.34,5.83-2.675,8.91c-4.359,39.86,84.05,82.23,197.471,94.641c113.409,12.41,208.89-9.84,213.254-49.7      C462.271,273.323,459.181,265.009,452.801,256.868z" fill="#AFD8E4"/><path d="M263.905,186.893c-21.89-2.399-43.104-3.49-63.135-3.425c109.81,12.75,195.3,48.2,191.835,79.926      c-3.525,32.185-97.25,48.325-209.345,36.065c-38.15-4.176-73.49-11.105-103.405-19.695c34.535,23.68,96.35,43.6,168.266,51.465      c113.409,12.41,208.89-9.84,213.254-49.7C465.73,241.668,377.326,199.298,263.905,186.893z" fill="#3F85A2"/><path d="M263.905,186.893c-24.305-2.66-47.77-3.72-69.71-3.365c135.561,19.181,237.62,59.621,233.79,94.691      c-3.8,34.685-109.86,52.11-244.239,42.24c20.109,4.609,41.729,8.295,64.375,10.77c113.409,12.41,208.89-9.84,213.254-49.7      C465.73,241.668,377.326,199.298,263.905,186.893z" fill="#97C1CE"/><path d="M274.61,299.533c0,2.16-1.76,3.91-3.915,3.91c-2.16,0-3.915-1.75-3.915-3.91s1.755-3.915,3.915-3.915      C272.851,295.618,274.61,297.373,274.61,299.533z" fill="#FFFFFF"/><circle cx="402.98" cy="297.004" fill="#FFFFFF" r="2.98"/><circle cx="138.761" cy="240.653" fill="#FFFFFF" opacity="0.5" r="3.125"/><path d="M373.426,247.094c0,1.789-1.455,3.239-3.245,3.239s-3.245-1.45-3.245-3.239      c0-1.796,1.455-3.245,3.245-3.245S373.426,245.298,373.426,247.094z" fill="#FFFFFF"/><path d="M274.61,229.398c0,2.165-1.76,3.91-3.915,3.91c-2.16,0-3.915-1.745-3.915-3.91      c0-2.155,1.755-3.91,3.915-3.91C272.851,225.488,274.61,227.243,274.61,229.398z" fill="#FFFFFF" opacity="0.6"/></g><g><path d="M321.702,125.342l0.221,6.136c0.024,0.699,0.455,1.319,1.102,1.587c0.646,0.268,1.389,0.134,1.9-0.343      l4.495-4.184l-5.41,5.813c-0.257,0.276-0.33,0.678-0.185,1.026c0.145,0.349,0.479,0.581,0.857,0.594l7.933,0.285l-6.883,0.246      c-0.565,0.021-1.067,0.368-1.282,0.891c-0.218,0.523-0.11,1.123,0.275,1.537l4.694,5.043l-5.938-5.523      c-0.253-0.236-0.622-0.303-0.942-0.17s-0.535,0.441-0.548,0.787l-0.29,8.103l-0.244-6.833c-0.021-0.574-0.375-1.083-0.905-1.303      s-1.14-0.11-1.561,0.281l-5.01,4.658l3.372-3.623c0.623-0.668,0.798-1.637,0.448-2.479c-0.348-0.844-1.157-1.404-2.067-1.438      l-4.945-0.177l7.567-0.271c0.442-0.017,0.835-0.289,1.005-0.697c0.168-0.41,0.083-0.88-0.217-1.205l-5.163-5.544l4.325,4.023      c0.543,0.505,1.33,0.647,2.015,0.364c0.686-0.284,1.143-0.941,1.168-1.683L321.702,125.342z" fill="#FFFFFF"/><path d="M400,404.39l0.221,6.135c0.025,0.7,0.455,1.319,1.103,1.587c0.645,0.268,1.388,0.133,1.899-0.342      l4.493-4.183l-5.407,5.813c-0.258,0.274-0.33,0.678-0.186,1.024c0.145,0.351,0.48,0.583,0.857,0.596l7.933,0.285l-6.885,0.247      c-0.565,0.021-1.065,0.367-1.282,0.89c-0.216,0.522-0.107,1.123,0.277,1.538l4.692,5.045l-5.933-5.525      c-0.255-0.234-0.625-0.302-0.945-0.17c-0.32,0.133-0.535,0.442-0.547,0.788L400,426.22l-0.244-6.833      c-0.021-0.572-0.375-1.082-0.905-1.303c-0.53-0.22-1.14-0.109-1.563,0.28l-5.005,4.66l3.372-3.625      c0.623-0.67,0.798-1.638,0.448-2.48c-0.351-0.842-1.158-1.404-2.07-1.438l-4.947-0.177l7.569-0.271      c0.442-0.018,0.835-0.29,1.005-0.7c0.17-0.407,0.086-0.88-0.217-1.202l-5.16-5.545l4.322,4.022      c0.543,0.505,1.33,0.647,2.016,0.362c0.685-0.282,1.143-0.94,1.167-1.68L400,404.39z" fill="#FFFFFF"/><polygon fill="#FFFFFF" points="270.692,46.116 271.907,64.753 290.542,65.966 271.907,67.176 270.692,85.816 269.482,67.176       250.843,65.966 269.482,64.753     "/><polygon fill="#FFFFFF" points="162.535,66.653 157.58,76.014 166.221,82.136 156.865,77.184 150.74,85.821 155.69,76.464       147.056,70.341 156.41,75.293     "/><polygon fill="#FFFFFF" points="297.646,398.679 292.69,408.039 301.33,414.159 291.976,409.209 285.851,417.85       290.801,408.489 282.166,402.364 291.521,407.319     "/><polygon fill="#FFFFFF" points="467.4,195.127 462.445,204.487 471.085,210.607 461.73,205.657 455.605,214.298       460.556,204.938 451.921,198.813 461.275,203.768     "/><polygon fill="#FFFFFF" points="56.394,289.945 51.438,299.306 60.078,305.426 50.724,300.476 44.599,309.116 49.549,299.756       40.914,293.631 50.269,298.586     "/><path d="M408.879,107.502l-1.955,3.693c-1.716,3.242-0.761,7.252,2.234,9.375l3.405,2.412l-3.69-1.952      c-3.24-1.716-7.25-0.761-9.372,2.232l-2.415,3.407l1.952-3.692c1.716-3.242,0.761-7.25-2.229-9.373l-3.41-2.417l3.689,1.955      c3.243,1.715,7.256,0.76,9.375-2.232L408.879,107.502z" fill="#FFFFFF"/><path d="M124.021,374.504l-1.955,3.692c-1.715,3.242-0.76,7.255,2.232,9.375l3.407,2.413l-3.689-1.953      c-3.24-1.715-7.25-0.76-9.373,2.232l-2.414,3.408l1.952-3.693c1.718-3.239,0.763-7.252-2.23-9.372l-3.409-2.418l3.689,1.955      c3.242,1.716,7.255,0.761,9.375-2.232L124.021,374.504z" fill="#FFFFFF"/><g><polygon fill="#FD9F17" points="152.535,117.086 145.721,134.921 162.525,143.986 144.69,137.174 135.626,153.977        142.44,136.142 125.636,127.076 143.476,133.892      "/><circle cx="143.358" cy="136.254" fill="#FD9F17" r="8.567"/><path d="M146.636,133.909c0,2.67-2.165,4.832-4.83,4.832c-2.67,0-4.835-2.162-4.835-4.832       c0-2.671,2.165-4.833,4.835-4.833C144.471,129.076,146.636,131.238,146.636,133.909z" fill="#FFFFFF"/></g><g><polygon fill="#FD9F17" points="235.996,438.964 231.021,451.979 243.285,458.595 230.266,453.624 223.655,465.885        228.626,452.869 216.365,446.254 229.381,451.229      "/><path d="M235.551,452.954c0,3.455-2.8,6.25-6.255,6.25s-6.25-2.795-6.25-6.25s2.795-6.255,6.25-6.255       S235.551,449.499,235.551,452.954z" fill="#FD9F17"/><path d="M231.69,451.244c0,1.945-1.58,3.525-3.524,3.525c-1.95,0-3.53-1.58-3.53-3.525       c0-1.95,1.58-3.53,3.53-3.53C230.11,447.714,231.69,449.294,231.69,451.244z" fill="#FFFFFF"/></g></g></g></g></svg>