<?xml version="1.0" ?><!DOCTYPE svg  PUBLIC '-//W3C//DTD SVG 1.1//EN'  'http://www.w3.org/Graphics/SVG/1.1/DTD/svg11.dtd'><svg enable-background="new 0 0 512 512" height="512px" id="Layer_1" version="1.1" viewBox="0 0 512 512" width="512px" xml:space="preserve" xmlns="http://www.w3.org/2000/svg" xmlns:xlink="http://www.w3.org/1999/xlink"><g><g><g><path d="M512,256c0,141.382-114.619,256-256.003,256C114.608,512,0,397.382,0,256C0,114.617,114.608,0,255.997,0      C396.965,0,512,114.21,512,256z" fill="#002D52"/><path d="M481.087,133.947C368.055,305.007,85.276,83.502,8.023,276.809      c0.615-9.736,1.23-19.473,1.85-29.209c71.43-209.35,306.683-37.249,364.03-218.884C419.278,52.295,456.7,89.066,481.087,133.947      z" fill="#FFFFFF" opacity="0.1"/></g><g><g><path d="M493.862,276.395c-0.854-1.499-2.165-2.601-3.72-3.299       c0.469-1.122,0.472-2.335-0.107-3.355c-0.062-0.107-0.147-0.196-0.219-0.295c1.758-3.099,2.765-6.643,2.765-10.42       c0-26.195-38.839-30.022-45.029-5.071c-3.062-0.07-5.879,0.262-8.924,1.156l-23.382-16.092l-8.104,10.003l16.731,16.393       c-3.225,4.386-5.13,9.723-5.13,15.495c0,5.108,1.51,9.869,4.085,13.942c-2.46,2.196-4.003,5.315-4.003,8.789       c0,6.646,5.622,12.033,12.554,12.033c5.474,0,10.115-3.359,11.835-8.04c14.761,4.008,25.519-0.966,30.386-9.057       c2.441,2.268,6.617,2.602,10.23,0.544c3.669-2.091,5.536-5.942,4.74-9.233c0.073-0.041,0.15-0.074,0.222-0.115       C494.083,286.759,496.354,280.769,493.862,276.395z" fill="#FFFFFF" opacity="0.2"/><path d="M483.229,262.653c0-20.608-29.123-23.62-33.764-3.99       c-2.296-0.054-6.708,0.207-8.991,0.911l-26.713-18.724l-5.395,6.344l23.344,20.484c-2.418,3.451-3.848,7.648-3.848,12.192       c0,4.019,1.133,7.764,3.063,10.967c-1.845,1.729-3.002,4.184-3.002,6.917c0,5.228,4.217,9.465,9.415,9.465       c4.103,0,7.583-2.641,8.871-6.324c18.325,5.221,28.441-8.913,23.863-21.512C477.617,277.583,483.229,270.785,483.229,262.653z" fill="#FFFFFF" opacity="0.2"/></g><g><g><path d="M418.943,210.25c2.328-1.483,5.17-1.925,7.837-1.22l32.366,8.553c0.325,0.086,0.671-0.027,0.883-0.288        l0.218-0.27c0.15-0.187,0.216-0.428,0.181-0.665c-0.036-0.237-0.17-0.448-0.369-0.582L398.319,174.4        c-3.241-2.173-7.456-2.235-10.761-0.161l-13.964,8.767l29.845,37.12L418.943,210.25z" fill="#BFBFAF"/><path d="M377.264,261.67c-0.971,2.584-0.813,5.454,0.428,7.921l15.066,29.892        c0.151,0.298,0.11,0.66-0.101,0.923l-0.216,0.271c-0.155,0.188-0.371,0.299-0.614,0.313c-0.239,0.018-0.477-0.071-0.646-0.239        l-53.263-51.839c-2.795-2.721-3.733-6.831-2.382-10.494l5.688-15.476l42.489,21.518L377.264,261.67z" fill="#F3F1DD"/><path d="M400.143,256.77l5.446,4.249c1.622,1.266,3.96,0.999,5.255-0.6l13.731-16.942        c1.296-1.6,1.072-3.941-0.503-5.267l-5.281-4.444L400.143,256.77z" fill="#D3D3C0"/><polygon opacity="0.2" points="420.377,235.103 418.788,233.766 400.143,256.77 401.776,258.045       "/><path d="M229.032,98.827l180.526,146.318l-10.622,13.105c-1.12,1.383-3.055,1.797-4.642,0.991        c-4.921-2.503-9.806-5.042-14.638-7.609c-62.983-33.41-118.949-72.453-141.717-112.73        C231.405,127.336,228.276,110.59,229.032,98.827z" fill="#FFFDED"/><path d="M409.715,214.541c3.521,4.206,7.01,8.456,10.473,12.749c1.119,1.388,1.114,3.36-0.009,4.745        l-10.621,13.1L229.032,98.813c11.353-3.178,28.384-3.582,41.045,0.417C314.206,113.163,363.992,159.829,409.715,214.541z" fill="#D3D3C0"/><path d="M379.686,251.598c4.834,2.568,9.719,5.105,14.641,7.608c1.59,0.807,3.519,0.394,4.641-0.991        l21.082-26.011c1.12-1.382,1.125-3.361,0.007-4.746c-3.464-4.291-6.95-8.541-10.472-12.744L379.686,251.598z" fill="#D3D3C0"/><path d="M411.243,216.729c-0.554-0.676-1.106-1.349-1.66-2.014l-29.897,36.883        c0.764,0.409,1.54,0.811,2.31,1.216L411.243,216.729z" opacity="0.2"/></g><g><path d="M305.473,159.898c-6.366,7.858-17.941,9.068-25.803,2.696c-7.858-6.367-9.07-17.944-2.701-25.803        c6.369-7.855,17.944-9.064,25.809-2.695C310.633,140.461,311.844,152.041,305.473,159.898z M280.42,139.582        c-4.829,5.961-3.916,14.738,2.046,19.566c5.958,4.826,14.731,3.911,19.561-2.048c4.83-5.955,3.911-14.729-2.047-19.556        C294.02,132.713,285.246,133.632,280.42,139.582z"/><path d="M304.053,159.511c-6.367,7.855-17.941,9.067-25.8,2.695c-7.864-6.365-9.074-17.943-2.701-25.805        c6.369-7.855,17.946-9.067,25.802-2.693C309.215,140.075,310.425,151.647,304.053,159.511z M278.997,139.202        c-4.826,5.959-3.907,14.727,2.048,19.559c5.959,4.829,14.735,3.913,19.561-2.048c4.829-5.956,3.914-14.732-2.044-19.562        C292.601,132.325,283.829,133.244,278.997,139.202z" fill="#BD2508"/><g><g><g><path d="M274.855,147.916c-0.018,5.787,3.269,10.811,8.077,13.31l0.08-26.584           C278.188,137.114,274.866,142.12,274.855,147.916z" fill="#6696C4"/><path d="M292.702,133.289l-0.091,29.356c0.992-0.188,1.944-0.477,2.853-0.847l0.085-27.65           C294.64,133.774,293.687,133.484,292.702,133.289z" fill="#6696C4"/><path d="M295.549,134.148l-0.085,27.65c0.593-0.242,1.161-0.522,1.714-0.836l0.077-25.968           C296.71,134.679,296.14,134.396,295.549,134.148z" fill="#9CCFFF"/><path d="M304.765,148.005c0.018-5.565-3.009-10.414-7.51-13.01l-0.077,25.968           C301.69,158.396,304.748,153.563,304.765,148.005z" fill="#6696C4"/></g><g><path d="M289.856,133.001c-0.129,0.003-0.255,0.023-0.38,0.023l-0.018,29.866           c0.104,0.007,0.203,0.02,0.306,0.023c0.701,0,1.387-0.063,2.06-0.16l0.014-29.596           C291.188,133.07,290.526,133.001,289.856,133.001z" fill="#6696C4"/><path d="M283.013,134.642l-0.08,26.584c1.961,1.021,4.177,1.614,6.526,1.665l0.018-29.866           C287.149,133.078,284.961,133.649,283.013,134.642z" fill="#9CCFFF"/><path d="M291.824,162.754c0.262-0.034,0.534-0.063,0.787-0.108l0.091-29.356           c-0.282-0.057-0.573-0.091-0.864-0.131L291.824,162.754z" fill="#9CCFFF"/></g></g><g opacity="0.3"><path d="M279.225,157.141c-4.723-6.774-3.061-16.099,3.717-20.819c3.916-2.735,8.686-3.317,12.925-2.02          c-4.621-2.039-10.163-1.715-14.607,1.384c-6.78,4.727-8.44,14.051-3.716,20.828c1.99,2.857,4.808,4.795,7.896,5.729          C283.024,161.18,280.848,159.469,279.225,157.141z"/></g></g></g><g><path d="M344.909,192.578c-4.78,5.898-13.472,6.811-19.373,2.028c-5.898-4.784-6.806-13.473-2.025-19.371        s13.469-6.808,19.373-2.024C348.78,177.988,349.69,186.676,344.909,192.578z M326.098,177.335        c-3.625,4.47-2.935,11.056,1.538,14.684c4.473,3.629,11.056,2.936,14.684-1.537c3.625-4.473,2.938-11.059-1.534-14.686        C336.312,172.176,329.724,172.859,326.098,177.335z"/><path d="M344.145,192.341c-4.78,5.902-13.469,6.812-19.37,2.028c-5.896-4.783-6.812-13.469-2.027-19.373        c4.782-5.898,13.474-6.809,19.372-2.024C348.019,177.757,348.928,186.445,344.145,192.341z M325.336,177.099        c-3.622,4.473-2.938,11.053,1.537,14.684c4.474,3.625,11.06,2.935,14.682-1.538c3.629-4.472,2.938-11.058-1.531-14.683        C335.548,171.933,328.962,172.623,325.336,177.099z" fill="#BD2508"/><g><g><g><path d="M322.227,183.639c-0.011,4.353,2.454,8.118,6.064,9.995l0.06-19.952           C324.729,175.533,322.239,179.292,322.227,183.639z" fill="#6696C4"/><path d="M335.628,172.663l-0.068,22.034c0.744-0.14,1.46-0.356,2.136-0.636l0.065-20.757           C337.083,173.021,336.363,172.806,335.628,172.663z" fill="#6696C4"/><path d="M337.761,173.305l-0.065,20.757c0.451-0.18,0.876-0.394,1.286-0.628l0.061-19.492           C338.629,173.701,338.204,173.496,337.761,173.305z" fill="#84C3FF"/><path d="M344.681,183.704c0.012-4.173-2.259-7.814-5.639-9.763l-0.061,19.492           C342.368,191.511,344.669,187.877,344.681,183.704z" fill="#6696C4"/></g><g><path d="M333.485,172.44c-0.095,0-0.186,0.018-0.282,0.018l-0.014,22.425c0.079,0,0.153,0.014,0.23,0.014           c0.525,0.006,1.038-0.045,1.543-0.116l0.014-22.22C334.486,172.494,333.99,172.449,333.485,172.44z" fill="#6696C4"/><path d="M328.351,173.682l-0.06,19.952c1.473,0.767,3.138,1.206,4.898,1.249l0.014-22.425           C331.457,172.497,329.812,172.931,328.351,173.682z" fill="#84C3FF"/><path d="M334.963,194.78c0.203-0.031,0.402-0.052,0.597-0.083l0.068-22.034           c-0.214-0.046-0.434-0.074-0.651-0.103L334.963,194.78z" fill="#84C3FF"/></g></g><g opacity="0.3"><path d="M325.511,190.564c-3.546-5.086-2.302-12.083,2.786-15.628c2.938-2.051,6.523-2.487,9.701-1.517          c-3.466-1.532-7.627-1.287-10.965,1.043c-5.086,3.549-6.338,10.545-2.787,15.625c1.495,2.15,3.604,3.603,5.928,4.307          C328.354,193.597,326.726,192.311,325.511,190.564z" fill="#C1C1C1"/></g></g></g><g><g><path d="M401.717,239.616c-2.028,2.507-5.537,3.205-8.38,1.688c-18.952-10.122-36.209-22.615-42.484-33.717         c-1.95-3.442-2.883-8.443-2.654-11.939c17.938,14.535,35.874,29.073,53.81,43.608         C401.985,239.282,401.882,239.413,401.717,239.616z" fill="#BFBFAF"/><path d="M402.23,238.985c2.039-2.514,1.99-6.101-0.098-8.568c-13.959-16.486-30.565-31.039-41.758-34.576         c-3.776-1.192-8.854-1.072-12.237-0.126c17.936,14.542,35.874,29.08,53.808,43.618         C401.953,239.324,402.059,239.199,402.23,238.985z" fill="#9E9E91"/></g><path d="M402.238,238.974c-0.043,0.055-0.091,0.108-0.137,0.174c-0.051,0.06-0.103,0.123-0.156,0.186        c-0.046,0.06-0.095,0.126-0.141,0.177c-1.389,1.711-3.471,2.562-5.556,2.453c1.089,0.653,2.188,1.313,3.291,1.966        c2.741,1.611,5.83,1.406,7.368-0.487c0.022-0.035,0.051-0.069,0.076-0.098c0.049-0.057,0.096-0.117,0.144-0.177        c0.028-0.037,0.057-0.069,0.082-0.103c1.541-1.902,1.096-4.958-1.058-7.309c-0.898-0.986-1.803-1.964-2.713-2.938        C404.062,234.896,403.673,237.205,402.238,238.974z" fill="#BD2508"/><path d="M405.348,235.101c2.153,2.353,2.599,5.408,1.056,7.311c-0.026,0.028-0.055,0.065-0.081,0.103        c-0.051,0.061-0.099,0.12-0.145,0.18c-0.025,0.029-0.052,0.065-0.077,0.091c-1.534,1.9-4.624,2.105-7.364,0.485        c-0.739-0.434-1.47-0.873-2.202-1.312c-0.097,0-0.193,0.008-0.285,0.005c1.089,0.653,2.188,1.313,3.291,1.966        c2.741,1.611,5.83,1.406,7.368-0.487c0.022-0.035,0.051-0.069,0.076-0.098c0.049-0.057,0.096-0.117,0.144-0.177        c0.028-0.037,0.057-0.069,0.082-0.103c1.541-1.902,1.096-4.958-1.058-7.309c-0.898-0.986-1.803-1.964-2.713-2.938        c0.028,0.104,0.043,0.2,0.074,0.3C404.124,233.777,404.74,234.437,405.348,235.101z" fill="#8C1B06"/></g></g></g><g><path d="M181.787,50.612c30.119,12.341,44.529,46.755,32.188,76.867c-12.338,30.109-46.752,44.52-76.872,32.178      c-30.109-12.337-44.521-46.753-32.179-76.86c0.979-2.397,2.095-4.689,3.344-6.875c3.479-6.112,7.949-11.414,13.108-15.771      C137.619,46.429,160.751,41.995,181.787,50.612z" fill="#D5D5D5"/><path d="M211.04,76.693c2.042,11.8,0.841,24.532-4.153,36.721      c-13.308,32.472-48.506,48.796-78.626,36.456c-6.593-2.7-12.396-6.551-17.297-11.264c6.269,9.099,15.151,16.548,26.139,21.051      c30.12,12.342,64.534-2.068,76.872-32.178C221.008,110.318,219.341,91.766,211.04,76.693z" fill="#FFFFFF" opacity="0.8"/><g><path d="M188.467,73.39c2.307,0.946,3.412,3.577,2.465,5.884       c-0.946,2.305-3.581,3.406-5.887,2.464c-2.307-0.944-3.405-3.576-2.461-5.887C183.528,73.546,186.163,72.445,188.467,73.39z" fill="#FFFFFF" opacity="0.1"/><path d="M190.614,78.123c-0.944,2.303-3.579,3.408-5.885,2.463c-1.132-0.464-1.966-1.337-2.421-2.374       c0.227,1.525,1.207,2.9,2.736,3.525c2.306,0.942,4.94-0.159,5.887-2.464c0.481-1.174,0.425-2.432-0.046-3.511       C190.999,76.537,190.931,77.351,190.614,78.123z" opacity="0.1"/></g><g><path d="M217.27,116.545c-0.727,3.682-1.824,7.347-3.295,10.935c-1.203,2.944-2.62,5.738-4.228,8.369       c-0.522,0.867-1.074,1.709-1.64,2.534c0.028,0.025,0.064,0.042,0.096,0.062c-0.033-0.011-0.067-0.036-0.103-0.046       c-0.083-0.051-0.161-0.09-0.242-0.143c-0.145-0.082-0.286-0.172-0.425-0.26c-0.116-0.072-0.226-0.133-0.33-0.206       c-0.13-0.09-0.251-0.178-0.367-0.268c-2.253-1.648-3.806-4.019-4.477-6.644c-0.07-0.275-0.136-0.551-0.182-0.842       c-0.248-1.346-0.261-2.731-0.025-4.122l0.004-0.007c0.143-0.834,0.383-1.669,0.718-2.489       C205.127,117.681,211.45,114.764,217.27,116.545z" opacity="0.1"/><path d="M209.386,135.717c0.115,0.044,0.24,0.096,0.361,0.132c-0.522,0.867-1.074,1.709-1.64,2.534       c-0.09-0.035-0.176-0.079-0.249-0.127c-0.145-0.082-0.286-0.172-0.425-0.26c-0.116-0.072-0.226-0.133-0.33-0.206       c-0.13-0.09-0.251-0.178-0.367-0.268c-2.253-1.648-3.806-4.019-4.477-6.644c-0.07-0.275-0.136-0.551-0.182-0.842       c-0.248-1.346-0.261-2.731-0.025-4.122C202.507,130.131,205.182,133.988,209.386,135.717z" opacity="0.1"/></g><g><path d="M153.896,64.318c-3.167,0.863-6.431-1.005-7.296-4.173c-0.86-3.164,1.008-6.436,4.176-7.297       c3.165-0.857,6.434,1.007,7.293,4.175C158.931,60.191,157.063,63.454,153.896,64.318z" opacity="0.1"/><path d="M158.068,57.023c-0.075-0.28-0.176-0.545-0.289-0.806c0.355,2.884-1.448,5.665-4.332,6.448       c-2.887,0.786-5.849-0.696-7.004-3.364c0.035,0.284,0.081,0.562,0.156,0.844c0.865,3.167,4.129,5.036,7.296,4.173       C157.063,63.454,158.931,60.191,158.068,57.023z" opacity="0.1"/></g><g><path d="M171.46,159.37c-8.676,2.365-17.626-2.757-19.989-11.438c-2.356-8.678,2.763-17.626,11.438-19.987       c8.68-2.358,17.627,2.756,19.991,11.435C185.259,148.057,180.139,157.013,171.46,159.37z" opacity="0.1"/><path d="M182.899,139.38c-0.211-0.769-0.489-1.5-0.798-2.213c0.969,7.9-3.963,15.526-11.872,17.677       c-7.907,2.152-16.021-1.921-19.19-9.222c0.094,0.771,0.225,1.542,0.432,2.311c2.363,8.681,11.313,13.803,19.989,11.438       C180.139,157.013,185.259,148.057,182.899,139.38z" opacity="0.1"/></g><g><path d="M146.266,97.556c-8.676,2.368-17.626-2.756-19.989-11.435c-2.357-8.678,2.763-17.626,11.437-19.99       c8.681-2.359,17.628,2.761,19.991,11.437C160.063,86.245,154.943,95.197,146.266,97.556z" opacity="0.1"/><path d="M157.704,77.569c-0.211-0.773-0.488-1.5-0.798-2.211c0.97,7.899-3.962,15.522-11.871,17.676       c-7.908,2.15-16.021-1.923-19.191-9.222c0.094,0.769,0.226,1.538,0.433,2.309c2.363,8.678,11.313,13.802,19.989,11.435       C154.943,95.197,160.063,86.245,157.704,77.569z" opacity="0.1"/></g><path d="M108.606,75.354c1.749,2.366,4.406,3.933,7.445,4.067c5.529,0.219,10.207-4.403,10.452-10.325      c0.101-2.473-0.6-4.771-1.826-6.633c2.762,2.046,4.496,5.381,4.353,9.08c-0.247,5.922-5.239,10.53-11.163,10.298      c-4.198-0.176-7.746-2.742-9.354-6.34L108.606,75.354z" opacity="0.1"/><g><path d="M135.746,114.739c-3.278-1.344-4.985-4.888-4.131-8.225c-0.161,0.28-0.312,0.566-0.439,0.875       c-1.469,3.584,0.249,7.684,3.833,9.15c3.586,1.472,7.684-0.242,9.152-3.83c0.126-0.307,0.22-0.621,0.299-0.93       C142.726,114.76,139.025,116.083,135.746,114.739z" opacity="0.2"/><circle cx="138.039" cy="109.147" opacity="0.1" r="7.016"/></g><g><path d="M169.149,66.515c0.572-2.746,3.252-4.516,6.002-3.947       c2.743,0.572,4.507,3.262,3.938,6.003c-0.566,2.748-3.254,4.505-6,3.937C170.345,71.939,168.586,69.252,169.149,66.515z" fill="#FFFFFF" opacity="0.1"/><path d="M173.941,63.155c2.743,0.572,4.507,3.259,3.94,6.001c-0.277,1.35-1.071,2.453-2.123,3.172       c1.641-0.568,2.957-1.935,3.331-3.757c0.568-2.742-1.195-5.431-3.938-6.003c-1.4-0.289-2.78,0.038-3.875,0.779       C172.108,63.063,173.021,62.97,173.941,63.155z" opacity="0.1"/></g></g><g><path d="M503.149,322.959c-14.472,53.544-45.864,100.1-88.117,133.623      c-13.014,10.331-27.061,19.425-41.963,27.107c-15.794,8.154-32.542,14.687-50.052,19.427      c-21.341,5.79-43.832,8.874-67.014,8.874c-47.805,0-92.524-13.086-130.805-35.888      c47.687-93.378,166.043-159.511,304.502-159.511C454.939,316.592,479.537,318.797,503.149,322.959z" fill="#FAA21B"/><path d="M485.804,368.849c-0.524,1.067-1.053,2.129-1.597,3.187c-1.377,2.718-2.81,5.411-4.283,8.074      c-2.79,5.031-5.742,9.961-8.857,14.772c-15.194,23.503-34.165,44.348-56.037,61.702c-13.009,10.331-27.06,19.422-41.959,27.105      c-15.794,8.156-32.544,14.687-50.05,19.428c-21.344,5.788-43.835,8.872-67.019,8.872c-34.475,0-67.348-6.819-97.355-19.163      c56.417-75.412,162.336-126.178,283.662-126.178C457.046,366.648,471.569,367.385,485.804,368.849z" fill="#F47A20"/><g opacity="0.4"><g><path d="M484.207,372.035c-1.377,2.718-2.81,5.411-4.283,8.074c-2.79,5.031-5.742,9.961-8.857,14.772        c-0.371,0.005-0.742,0.01-1.113,0.016c-9.64,0.122-18.538-0.666-25.663-2.084c-10.087-2.007-16.617-5.29-16.668-9.075        c-0.081-6.459,18.736-11.938,42.031-12.232C474.766,371.44,479.67,371.634,484.207,372.035z" opacity="0.4"/><path d="M479.924,380.109c-2.79,5.031-5.742,9.961-8.857,14.772c-0.371,0.005-0.742,0.01-1.113,0.016        c-9.64,0.122-18.538-0.666-25.663-2.084c-0.05-0.223-0.081-0.452-0.086-0.681        C444.128,386.273,459.638,381.218,479.924,380.109z" opacity="0.4"/></g></g><g><path d="M439.858,317.689c-10.524-1.493-20.534-0.07-25.126,3.205       c-1.118-0.229-2.269-0.434-3.455-0.602c-14.768-2.096-28.962,1.666-31.699,8.392c-2.734,6.729,7.023,13.876,21.795,15.972       c9.24,1.31,18.255,0.327,24.379-2.24c9.984,2.861,20.654,2.069,23.992-1.824c1.217-1.423,1.283-3.065,0.406-4.726       c4.979-1.066,8.582-3.006,9.626-5.565C461.854,325.188,452.937,319.541,439.858,317.689z" fill="#D15119" opacity="0.3"/><path d="M439.858,317.689c-10.524-1.493-20.534-0.07-25.126,3.205       c-1.118-0.229-2.269-0.434-3.455-0.602c-14.768-2.096-28.962,1.666-31.699,8.392c-0.24,0.597-0.353,1.196-0.404,1.798       c10.014-13.205,54.095-6.97,52.87,7.492c0.417-0.549,0.778-1.114,1.024-1.709c2.315-5.697-4.323-11.697-15.376-14.672       c5.247-1.809,13.005-2.384,21.081-1.238c11.917,1.688,20.347,6.526,20.186,11.239c0.34-0.415,0.63-0.842,0.817-1.294       C461.854,325.188,452.937,319.541,439.858,317.689z" fill="#8C1B06" opacity="0.3"/></g><path d="M338.915,344.608c2.763-2.015,3.428-4.237,1.299-6.094c-3.917-3.365-15.611-4.224-26.122-1.917      c-4.387,0.965-7.85,2.331-10.141,3.828c1.417-2.483,5.881-4.891,12.44-6.337c10.515-2.306,22.426-1.257,26.627,2.349      c2.958,2.559,1.244,5.724-3.776,8.165L338.915,344.608z" opacity="0.4"/><g><g><path d="M419.268,406.957c-5.798,3.636-15.214,6.478-26.155,7.463c-19.025,1.706-35.43-2.853-36.654-10.186        c-1.215-7.328,13.212-14.662,32.233-16.368c19.016-1.714,35.425,2.849,36.645,10.182c0.01,0.071,0.02,0.146,0.025,0.217        C425.742,401.308,423.445,404.339,419.268,406.957z" opacity="0.2"/><path d="M356.459,404.236c0.11,0.653,0.379,1.271,0.719,1.875c1.339-6.64,14.813-12.866,32.148-14.426        c17.328-1.556,32.445,2.103,35.93,8.307c0.131-0.646,0.184-1.293,0.081-1.945c-1.223-7.334-17.63-11.896-36.647-10.182        C369.671,389.571,355.243,396.904,356.459,404.236z" opacity="0.4"/></g><g><path d="M396.145,401.972c0.022-2.644,7.144-4.79,16.355-5.104c-0.864-0.036-1.733-0.063-2.635-0.067        c-10.455-0.046-18.954,2.26-18.975,5.148c-0.03,2.89,8.428,5.272,18.889,5.317c0.897,0.004,1.775-0.016,2.63-0.045        C403.193,406.825,396.123,404.614,396.145,401.972z" opacity="0.4"/><path d="M419.268,406.957c-2.129,0.216-4.44,0.332-6.86,0.32c-10.458-0.049-18.924-2.427-18.889-5.316        c0.025-2.89,8.522-5.193,18.976-5.148c4.975,0.021,9.498,0.571,12.867,1.452C425.742,401.308,423.445,404.339,419.268,406.957        z" opacity="0.2"/></g></g></g><g><path d="M415.032,456.582c-13.014,10.331-27.061,19.425-41.963,27.107      c-15.794,8.154-32.542,14.687-50.052,19.427c-21.341,5.79-43.832,8.874-67.014,8.874c-100.249,0-187.029-57.609-229.039-141.518      c-7.874-15.743-14.187-32.395-18.71-49.785c-3.78-14.453-6.317-29.43-7.491-44.789c39.79-3.421,82.281-1.986,125.852,4.974      C263.872,302.788,373.784,373.535,415.032,456.582z" fill="#D15119"/><path d="M373.069,483.689c-15.794,8.154-32.542,14.687-50.052,19.427c-21.341,5.79-43.832,8.874-67.014,8.874      c-100.249,0-187.029-57.609-229.039-141.518c-7.874-15.743-14.187-32.395-18.71-49.785c29.883-0.745,60.987,1.267,92.687,6.339      C225.498,346.934,326.892,408.778,373.069,483.689z" fill="#BD2508"/><path d="M323.021,503.117c-21.344,5.788-43.835,8.872-67.019,8.872c-9.146,0-18.183-0.478-27.08-1.417      c-3.202-0.336-6.383-0.728-9.549-1.18c-84.458-12.1-155.613-65.416-192.41-138.918c14.91,1.052,30.023,2.774,45.268,5.214      c100.237,16.018,185.458,59.181,238.999,114.46C315.352,494.401,319.285,498.727,323.021,503.117z" fill="#8C1B06"/><g><path d="M174.837,357.049c-1.448,2.348-6.165,4.172-12.766,5.279       c-0.589,0.103-1.199,0.199-1.819,0.285c1.331,1.656,1.23,3.303-0.614,4.726c-5.057,3.894-21.217,4.686-36.34,1.824       c-9.279,2.566-22.935,3.548-36.935,2.241c-12.195-1.143-22.136-3.785-27.985-7.048c-4.883-2.714-6.916-5.864-5.031-8.924       c4.147-6.728,25.647-10.488,48.022-8.395c1.794,0.167,3.537,0.371,5.229,0.604c6.956-3.277,22.12-4.7,38.066-3.207       C164.475,346.286,177.982,351.932,174.837,357.049z" fill="#141F4A" opacity="0.2"/><path d="M160.252,362.613c1.331,1.656,1.23,3.303-0.614,4.726c-5.057,3.894-21.217,4.686-36.34,1.824       c-9.279,2.566-22.935,3.548-36.935,2.241c-12.195-1.143-22.136-3.785-27.985-7.048c9.142-3.304,24.423-4.721,40.136-3.247       c1.794,0.168,3.536,0.37,5.229,0.6c6.957-3.272,22.12-4.696,38.067-3.207c8.014,0.747,14.996,2.119,20.261,3.826       C161.482,362.431,160.872,362.527,160.252,362.613z" opacity="0.15"/><path d="M144.664,344.435c-15.942-1.493-31.106-0.069-38.063,3.206c-1.694-0.23-3.437-0.434-5.233-0.602       c-22.37-2.097-43.873,1.666-48.02,8.392c-0.363,0.597-0.533,1.196-0.611,1.798c12.503-10.884,60.063-8.562,75.357,0.689       l6.04,0.083c-2.729-3.948-11.22-7.56-23.049-9.661c7.949-1.81,19.7-2.384,31.936-1.239c18.051,1.689,30.82,6.527,30.576,11.239       c0.516-0.414,0.955-0.841,1.239-1.293C177.983,351.934,164.475,346.286,144.664,344.435z" opacity="0.2"/></g><g><path d="M67.114,285.483c-0.679-3.392-6.453-6.739-14.595-8.085       c-6.186-1.021-12.269-0.642-16.444,0.773c-6.651-1.983-13.844-1.76-16.173,0.53c-0.849,0.837-0.93,1.836-0.377,2.868       c-3.371,0.527-5.836,1.622-6.595,3.155c-1.51,3.063,4.363,6.718,13.117,8.162c1.528,0.253,3.041,0.416,4.509,0.506       c0,0.01-0.003,0.021-0.003,0.03c0,4.57,12.773,8.275,28.53,8.275c15.757,0,28.53-3.705,28.53-8.275       C87.613,289.662,78.96,286.49,67.114,285.483z" fill="#141F4A" opacity="0.3"/><path d="M19.525,281.57c1.899-2.803,9.917-2.851,10.982-1.786c4.138,4.138,10-0.369,17.324,0.785       c11.969,1.888,16.884,4.73,17.883,9.489c10.107-2.698,21.898,0.884,21.461,4.803c0.282-0.467,0.438-0.947,0.438-1.438       c0-3.762-8.653-6.934-20.499-7.94c-0.679-3.392-6.453-6.739-14.595-8.085c-6.186-1.021-12.269-0.642-16.444,0.773       c-6.651-1.983-13.844-1.76-16.173,0.53c-0.581,0.572-0.795,1.222-0.699,1.904C19.319,280.629,19.458,281.669,19.525,281.57z" fill="#141F4A" opacity="0.3"/></g><path d="M157.816,330.058c2.899-2.835,3.719-6.256,1.727-9.441c-3.669-5.785-15.274-8.576-25.923-6.236      c-4.444,0.979-7.994,2.705-10.386,4.782c1.589-3.738,6.212-6.982,12.857-8.452c10.651-2.339,22.459,0.781,26.396,6.979      c2.771,4.395,0.838,9.17-4.344,12.397L157.816,330.058z" opacity="0.2"/><g><path d="M322.779,462.973c-12.253-0.141-22.157-2.506-22.12-5.295       c0.042-2.785,9.996-4.929,22.236-4.792c12.25,0.139,22.127,2.508,22.107,5.299C344.971,460.97,335.014,463.113,322.779,462.973       z" fill="#FFFFFF" opacity="0.1"/><path d="M304.236,458.775c0.035-2.782,9.984-4.931,22.227-4.79c6.016,0.067,11.43,0.68,15.422,1.604       c-3.861-1.525-10.869-2.612-18.989-2.703c-12.24-0.137-22.194,2.007-22.236,4.792c-0.013,1.419,2.572,2.727,6.709,3.69       C305.423,460.593,304.228,459.707,304.236,458.775z" opacity="0.1"/></g><g><path d="M323.021,503.117c-21.344,5.788-43.835,8.872-67.019,8.872c-9.146,0-18.183-0.478-27.08-1.417       c-3.202-0.336-6.383-0.728-9.549-1.18c-1.281-5.046-2.175-9.889-2.663-14.468c-0.203-1.87-0.365-3.704-0.392-5.503       c-0.345-8.543,0.905-15.881,3.797-21.76l0.035-0.01c1.732-3.522,4.121-6.459,7.109-8.757       c17.634-13.405,51.788,0.356,83.971,31.253C315.352,494.401,319.285,498.727,323.021,503.117z" opacity="0.1"/><path d="M228.922,510.572c-3.202-0.336-6.383-0.728-9.549-1.18c-1.281-5.046-2.175-9.889-2.663-14.468       c-0.203-1.87-0.365-3.704-0.392-5.503c-0.345-8.543,0.905-15.881,3.797-21.76C219.597,479.767,222.641,494.585,228.922,510.572       z" opacity="0.1"/></g><g><g><path d="M151.43,447.936c20.746-0.51,37.661,3.377,37.81,8.685c0.13,5.3-16.595,10.022-37.35,10.53        c-20.733,0.5-37.684-3.381-37.793-8.688C113.961,453.155,130.67,448.448,151.43,447.936z" opacity="0.1"/><path d="M114.097,458.463c0.007,0.469,0.188,0.921,0.455,1.37c2.504-4.713,18.038-8.667,36.931-9.129        c18.92-0.464,34.613,2.722,37.345,7.31c0.244-0.464,0.414-0.921,0.412-1.394c-0.148-5.308-17.063-9.194-37.81-8.685        C130.67,448.448,113.961,453.155,114.097,458.463z" opacity="0.1"/></g><g><path d="M129.679,457.99c0.016-2.355,4.77-4.27,10.921-4.548c-0.577-0.032-1.157-0.056-1.759-0.061        c-6.981-0.042-12.656,2.013-12.669,4.588c-0.02,2.575,5.627,4.698,12.612,4.739c0.6,0.004,1.186-0.015,1.756-0.04        C134.387,462.316,129.665,460.345,129.679,457.99z" opacity="0.2"/><path d="M153.215,458.133c-0.013,2.577-5.69,4.63-12.675,4.587c-6.985-0.043-12.637-2.164-12.614-4.74        c0.016-2.575,5.689-4.628,12.67-4.587C147.581,453.435,153.232,455.559,153.215,458.133z" opacity="0.1"/></g></g><g><path d="M251.851,354.925c0.647-3.068,7.615-4.226,15.615-2.57       c7.984,1.658,13.942,5.49,13.304,8.556c-0.629,3.073-7.623,4.212-15.61,2.558C257.171,361.813,251.227,357.986,251.851,354.925       z" fill="#FFFFFF" opacity="0.1"/><path d="M264.244,352.624c7.984,1.658,13.941,5.487,13.311,8.554c-0.308,1.51-2.169,2.542-4.894,3.025       c4.449-0.094,7.696-1.255,8.108-3.293c0.639-3.065-5.319-6.897-13.304-8.556c-4.071-0.842-7.868-0.943-10.708-0.449       C259.016,351.862,261.57,352.078,264.244,352.624z" opacity="0.1"/></g></g><g><circle cx="250.018" cy="274.12" fill="#F2F5FB" r="5.981"/><path d="M272.597,59.895c0,3.472-2.813,6.283-6.284,6.283c-3.468,0-6.285-2.811-6.285-6.283      c0-3.475,2.817-6.285,6.285-6.285C269.784,53.61,272.597,56.42,272.597,59.895z" fill="#5C8AC8"/><circle cx="101.134" cy="229.816" fill="#F2F5FB" r="3.589"/><path d="M317.766,29.988c0,1.979-1.607,3.589-3.589,3.589s-3.589-1.61-3.589-3.589      c0-1.983,1.607-3.588,3.589-3.588S317.766,28.004,317.766,29.988z" fill="#F2F5FB"/><circle cx="376.743" cy="301.699" fill="#F2F5FB" r="3.589"/><circle cx="26.965" cy="249.808" fill="#F2F5FB" r="3.589"/><circle cx="62.853" cy="127.537" fill="#F2F5FB" r="3.589"/><polygon fill="#5C8AC8" points="203.358,225.63 205.05,231.116 210.536,232.807 205.05,234.499 203.358,239.985       201.667,234.499 196.181,232.807 201.667,231.116     "/><polygon fill="#FFFFFF" opacity="0.8" points="409.46,96.292 410.086,104.511 418.305,105.136 410.086,105.762 409.46,113.98       408.835,105.762 400.616,105.136 408.835,104.511     "/><g><circle cx="329.223" cy="63.266" fill="#5C8AC8" r="1.456"/><polygon fill="#5C8AC8" opacity="0.8" points="329.223,59.677 329.477,63.012 332.812,63.266 329.477,63.519 329.223,66.854        328.97,63.519 325.635,63.266 328.97,63.012      "/></g><g><circle cx="252.411" cy="22.811" fill="#FFFFFF" r="3.09"/><polygon fill="#FFFFFF" opacity="0.8" points="252.411,15.195 252.949,22.272 260.027,22.811 252.949,23.35 252.411,30.427        251.872,23.35 244.795,22.811 251.872,22.272      "/></g><polygon fill="#FFFFFF" points="492.309,180.567 492.668,185.289 497.39,185.648 492.668,186.008 492.309,190.73       491.949,186.008 487.227,185.648 491.949,185.289     "/><polygon fill="#FFFFFF" points="307.229,304.852 307.589,309.574 312.312,309.934 307.589,310.292 307.229,315.015       306.87,310.292 302.147,309.934 306.87,309.574     "/><polygon fill="#F2F5FB" points="213.283,271.728 213.643,276.449 218.365,276.809 213.643,277.168 213.283,281.891       212.924,277.168 208.202,276.809 212.924,276.449     "/><polygon fill="#F2F5FB" points="215.497,175.485 215.856,180.208 220.579,180.567 215.856,180.927 215.497,185.648       215.138,180.927 210.416,180.567 215.138,180.208     "/><g><polygon fill="#F9F12F" points="321.271,260.396 321.482,263.165 324.251,263.376 321.482,263.587 321.271,266.355        321.061,263.587 318.292,263.376 321.061,263.165      "/><g><path d="M322.627,263.377c0,0.745-0.607,1.353-1.355,1.353s-1.355-0.607-1.355-1.353        c0-0.068,0.005-0.138,0.017-0.205c0,0,0,0,0.003,0c0.096-0.652,0.657-1.15,1.336-1.15c0.191,0,0.373,0.04,0.539,0.111        C322.291,262.342,322.627,262.818,322.627,263.377z" fill="#FE4212"/><path d="M321.821,262.284c0,0.635-0.518,1.152-1.154,1.152c-0.278,0-0.534-0.099-0.731-0.265        c0.096-0.652,0.657-1.15,1.336-1.15c0.191,0,0.373,0.04,0.539,0.111C321.819,262.181,321.821,262.233,321.821,262.284z" fill="#F9F12F"/></g></g><g opacity="0.9"><polygon fill="#F9F12F" points="114.096,202.962 114.307,205.73 117.075,205.941 114.307,206.152 114.096,208.921        113.885,206.152 111.116,205.941 113.885,205.73      "/><g><path d="M115.451,205.942c0,0.745-0.607,1.353-1.355,1.353s-1.355-0.607-1.355-1.353        c0-0.069,0.005-0.138,0.017-0.205c0,0,0,0,0.003,0c0.096-0.653,0.657-1.15,1.336-1.15c0.191,0,0.373,0.039,0.539,0.11        C115.115,204.907,115.451,205.383,115.451,205.942z" fill="#FE4212"/><path d="M114.646,204.85c0,0.635-0.518,1.152-1.154,1.152c-0.278,0-0.534-0.099-0.731-0.265        c0.096-0.653,0.657-1.15,1.336-1.15c0.191,0,0.373,0.039,0.539,0.11C114.644,204.746,114.646,204.799,114.646,204.85z" fill="#F9F12F"/></g></g><g opacity="0.5"><polygon fill="#F9F12F" points="390.63,81.594 390.841,84.363 393.609,84.574 390.841,84.785 390.63,87.553 390.419,84.785        387.65,84.574 390.419,84.363      "/><g><path d="M391.985,84.575c0,0.746-0.607,1.353-1.355,1.353s-1.355-0.607-1.355-1.353        c0-0.069,0.005-0.138,0.017-0.205c0,0,0,0,0.003,0c0.096-0.653,0.657-1.15,1.336-1.15c0.191,0,0.373,0.039,0.538,0.11        C391.649,83.54,391.985,84.016,391.985,84.575z" fill="#FE4212"/><path d="M391.18,83.482c0,0.635-0.518,1.152-1.154,1.152c-0.279,0-0.534-0.099-0.731-0.265        c0.096-0.653,0.657-1.15,1.336-1.15c0.191,0,0.373,0.039,0.538,0.11C391.178,83.378,391.18,83.432,391.18,83.482z" fill="#F9F12F"/></g></g></g></g></g></svg>