<?xml version="1.0" ?><!DOCTYPE svg  PUBLIC '-//W3C//DTD SVG 1.1//EN'  'http://www.w3.org/Graphics/SVG/1.1/DTD/svg11.dtd'><svg enable-background="new 0 0 512 512" height="512px" id="Layer_1" version="1.1" viewBox="0 0 512 512" width="512px" xml:space="preserve" xmlns="http://www.w3.org/2000/svg" xmlns:xlink="http://www.w3.org/1999/xlink"><g><circle cx="256" cy="256" fill="#0E2F48" r="256"/><g><g><g><g><path d="M465.999,222.292c-14.602-30.527-103.053-54.001-209.996-54.001        c-106.949,0-195.404,23.475-209.997,54.001H465.999z" fill="#DC3C24"/><path d="M280.952,193.557c-12.459,14.61-36.808,23.603-67.294,28.734H446.51        c-13.444-26.07-74.899-49.686-184.951-49.686C281.575,177.025,289.349,183.707,280.952,193.557z" fill="#B3230A"/><path d="M335.044,173.271c-4.795,0.708-9.606,1.337-14.405,1.902c-41.299,4.955-83.109,5.146-124.439,0.566        c-6.423-0.707-12.83-1.525-19.237-2.468c-0.049-35.892,35.388-66.515,79.045-67.271        C299.655,106.756,335.097,137.378,335.044,173.271z" fill="#44B2B1"/><path d="M189.488,168.674c-0.226,0-0.449-0.017-0.68-0.051        c-2.313-0.346-3.881-2.365-3.505-4.509c3.856-22.185,23.143-41.667,50.338-50.843c2.198-0.744,4.634,0.313,5.429,2.354        c0.8,2.039-0.331,4.296-2.533,5.04c-24.312,8.2-41.5,25.33-44.873,44.702C193.333,167.3,191.532,168.674,189.488,168.674z" fill="#FEFEFD" opacity="0.7"/><path d="M320.639,175.173c-41.299,4.955-83.109,5.146-124.439,0.566c28.196-0.753,54.942-6.259,78.382-24.881        c24.687-19.63,11.179-36.287-20.542-44.369C291.252,109.665,320.67,140.697,320.639,175.173z" opacity="0.2"/></g><g><g><rect fill="#BD2508" height="21.759" width="419.993" x="46.006" y="222.292"/><path d="M465.999,222.296v21.754H170.777c28.302,0,52.281-13.245,38.859-21.754H465.999z" fill="#8C1B06"/><path d="M465.999,244.05c0,3.907-3.413,7.076-7.627,7.076H53.624c-4.212,0-7.625-3.169-7.625-7.076H465.999z" fill="#44B2B1"/><path d="M465.53,246.406c0.279-0.74,0.469-1.525,0.469-2.356H46.006         c0,0.831,0.183,1.616,0.47,2.356H465.53z" fill="#FEFEFD" opacity="0.7"/></g><g><g><g><path d="M264.277,233.172c0,4.433-3.874,8.027-8.654,8.027c-4.776,0-8.654-3.594-8.654-8.027           c0-4.437,3.878-8.029,8.654-8.029C260.403,225.143,264.277,228.735,264.277,233.172z" fill="#FFCC00"/><path d="M313.038,233.172c0,4.433-3.579,8.027-7.993,8.027c-4.405,0-7.987-3.594-7.987-8.027           c0-4.437,3.582-8.029,7.987-8.029C309.459,225.143,313.038,228.735,313.038,233.172z" fill="#FFCC00"/><path d="M366.038,233.172c0,4.433-3.286,8.027-7.334,8.027c-4.041,0-7.32-3.594-7.32-8.027           c0-4.437,3.279-8.029,7.32-8.029C362.752,225.143,366.038,228.735,366.038,233.172z" fill="#FFCC00"/><path d="M419.028,233.172c0,4.433-2.973,8.027-6.659,8.027c-3.682,0-6.662-3.594-6.662-8.027           c0-4.437,2.98-8.029,6.662-8.029C416.056,225.143,419.028,228.735,419.028,233.172z" fill="#FFCC00"/><path d="M465.999,225.144v16.057c-3.311-0.033-5.964-3.613-5.964-8.035S462.688,225.174,465.999,225.144z" fill="#FFCC00"/></g><g><path d="M198.967,233.171c0,4.433,3.579,8.024,7.991,8.024s7.982-3.592,7.982-8.024           c0-4.438-3.57-8.029-7.982-8.029S198.967,228.733,198.967,233.171z" fill="#FFCC00"/><path d="M145.971,233.171c0,4.433,3.275,8.024,7.328,8.024c4.043,0,7.328-3.592,7.328-8.024           c0-4.438-3.285-8.029-7.328-8.029C149.246,225.142,145.971,228.733,145.971,233.171z" fill="#FFCC00"/><path d="M92.971,233.171c0,4.433,2.984,8.024,6.666,8.024s6.664-3.592,6.664-8.024           c0-4.438-2.982-8.029-6.664-8.029S92.971,228.733,92.971,233.171z" fill="#FFCC00"/><path d="M46.006,225.142V241.2c3.302-0.033,5.97-3.616,5.97-8.036S49.308,225.17,46.006,225.142z" fill="#FFCC00"/></g></g><g><g><path d="M261.878,227.649c0.444,0.969,0.702,2.038,0.702,3.16c0,4.438-3.874,8.027-8.652,8.027           c-2.465,0-4.672-0.963-6.249-2.501c1.322,2.859,4.383,4.864,7.944,4.864c4.78,0,8.654-3.594,8.654-8.027           C264.277,231.023,263.351,229.087,261.878,227.649z" fill="#E67E22"/><path d="M310.541,227.363c0.5,1.047,0.799,2.207,0.799,3.446c0,4.438-3.574,8.027-7.991,8.027           c-2.135,0-4.055-0.851-5.484-2.221c1.287,2.706,4.004,4.583,7.181,4.583c4.414,0,7.993-3.594,7.993-8.027           C313.038,230.878,312.07,228.825,310.541,227.363z" fill="#E67E22"/><path d="M363.487,227.134c0.527,1.105,0.854,2.344,0.854,3.675c0,4.438-3.279,8.027-7.323,8.027           c-1.841,0-3.498-0.765-4.785-1.986c1.22,2.57,3.642,4.349,6.472,4.349c4.048,0,7.334-3.594,7.334-8.027           C366.038,230.749,365.038,228.607,363.487,227.134z" fill="#E67E22"/><path d="M416.443,226.857c0.555,1.172,0.894,2.509,0.894,3.952c0,4.438-2.979,8.027-6.664,8.027           c-1.539,0-2.942-0.653-4.075-1.711c1.145,2.418,3.291,4.073,5.771,4.073c3.687,0,6.659-3.594,6.659-8.027           C419.028,230.591,418.008,228.328,416.443,226.857z" fill="#E67E22"/><path d="M464.297,238.841c-1.225-0.012-2.367-0.517-3.319-1.381c1.057,2.226,2.899,3.722,5.021,3.741           v-16.057C465.405,225.149,464.297,238.841,464.297,238.841z" fill="#E67E22"/></g><g><path d="M212.445,227.36c0.5,1.046,0.807,2.206,0.807,3.449c0,4.435-3.574,8.025-7.985,8.025           c-2.135,0-4.063-0.852-5.499-2.221c1.291,2.702,4.012,4.582,7.19,4.582c4.412,0,7.982-3.592,7.982-8.024           C214.94,230.878,213.979,228.824,212.445,227.36z" fill="#E67E22"/><path d="M158.077,227.131c0.527,1.106,0.847,2.345,0.847,3.678c0,4.435-3.271,8.025-7.319,8.025           c-1.838,0-3.498-0.768-4.784-1.989c1.22,2.572,3.646,4.35,6.479,4.35c4.043,0,7.328-3.592,7.328-8.024           C160.627,230.745,159.626,228.602,158.077,227.131z" fill="#E67E22"/><path d="M103.71,226.855c0.552,1.17,0.891,2.51,0.891,3.954c0,4.435-2.98,8.025-6.657,8.025           c-1.546,0-2.944-0.654-4.073-1.711c1.145,2.419,3.287,4.072,5.767,4.072c3.682,0,6.664-3.592,6.664-8.024           C106.301,230.59,105.279,228.326,103.71,226.855z" fill="#E67E22"/><path d="M49.339,226.522c0.586,1.242,0.938,2.702,0.938,4.281c0,3.626-1.8,6.657-4.271,7.659v2.738           c3.302-0.033,5.97-3.616,5.97-8.036C51.976,230.398,50.93,227.961,49.339,226.522z" fill="#E67E22"/></g></g><path d="M207.354,229.5c0,1.704-1.265,3.09-2.833,3.09c-1.57,0-2.842-1.386-2.842-3.09         s1.271-3.088,2.842-3.088C206.09,226.411,207.354,227.795,207.354,229.5z" fill="#ECF0F1"/><path d="M153.723,229.5c0,1.704-1.277,3.09-2.841,3.09c-1.564,0-2.838-1.386-2.838-3.09         s1.273-3.088,2.838-3.088C152.445,226.411,153.723,227.795,153.723,229.5z" fill="#ECF0F1"/><path d="M101.085,229.5c0,1.704-1.278,3.09-2.847,3.09s-2.84-1.386-2.84-3.09s1.271-3.088,2.84-3.088         S101.085,227.795,101.085,229.5z" fill="#ECF0F1"/><ellipse cx="253.774" cy="229.5" fill="#ECF0F1" rx="3.325" ry="3.09"/><path d="M306.595,229.5c0,1.704-1.492,3.09-3.333,3.09c-1.832,0-3.324-1.386-3.324-3.09         s1.492-3.088,3.324-3.088C305.103,226.411,306.595,227.795,306.595,229.5z" fill="#ECF0F1"/><path d="M358.709,229.5c0,1.704-1.244,3.09-2.772,3.09c-1.535,0-2.775-1.386-2.775-3.09         s1.24-3.088,2.775-3.088C357.465,226.411,358.709,227.795,358.709,229.5z" fill="#ECF0F1"/><path d="M413.79,229.5c0,1.704-1.245,3.09-2.775,3.09c-1.532,0-2.777-1.386-2.777-3.09         s1.245-3.088,2.777-3.088C412.545,226.411,413.79,227.795,413.79,229.5z" fill="#ECF0F1"/></g></g></g></g><g><g><path d="M122.051,400.3c-0.208,0-0.424-0.008-0.636-0.026c-53.399-5.535-57.872-12.379-57.872-18.37       c0-6.482,6.479-11.427,38.743-16.037c21.885-3.128,52.121-5.495,87.433-6.843c3.118-0.132,5.816,2.16,5.951,5.09       c0.129,2.93-2.325,5.404-5.484,5.521c-67.007,2.546-101.661,8.151-112.452,12.212c4.961,1.851,16.917,4.969,44.95,7.877       c3.134,0.317,5.396,2.947,5.047,5.863C127.405,398.293,124.931,400.3,122.051,400.3z" fill="#FFFFFF"/><path d="M377.75,372.974c-0.179,0-0.359-0.008-0.541-0.025c-33.654-2.911-76.7-4.521-121.206-4.521       c-12.814,0-25.603,0.136-38.007,0.395c-0.044,0.001-0.089,0.001-0.133,0.001c-3.097,0-5.644-2.296-5.717-5.185       c-0.07-2.932,2.432-5.364,5.591-5.431c12.493-0.26,25.366-0.396,38.266-0.396c44.851,0,88.271,1.624,122.268,4.565       c3.147,0.272,5.457,2.859,5.168,5.775C383.16,370.909,380.667,372.974,377.75,372.974z" fill="#FFFFFF"/><path d="M331.854,404.388c-3.036,0-5.563-2.213-5.71-5.051c-0.154-2.928,2.278-5.423,5.438-5.558       c13.887-0.622,27-1.415,38.976-2.36c41.412-3.263,57.504-7.268,63.561-9.512c-3.952-1.457-12.173-3.664-28.884-5.934       c-3.128-0.421-5.29-3.118-4.835-6.017c0.456-2.901,3.347-4.917,6.487-4.488c34.619,4.692,41.572,9.77,41.572,16.435       c0,7.651-11.528,11.04-23.98,13.553c-12.564,2.534-30.875,4.803-52.951,6.542c-12.114,0.947-25.371,1.759-39.396,2.384       C332.036,404.386,331.94,404.388,331.854,404.388z" fill="#FFFFFF"/><path d="M256.003,406c-31.787,0-63.195-0.817-90.83-2.359c-3.152-0.17-5.552-2.694-5.364-5.619       c0.188-2.924,2.804-5.172,6.054-4.979c27.41,1.532,58.582,2.338,90.141,2.338c16.61,0,33.078-0.217,48.935-0.653       c3.123-0.009,5.795,2.223,5.884,5.151c0.095,2.931-2.39,5.379-5.549,5.46C289.304,405.774,272.725,406,256.003,406z" fill="#FFFFFF"/></g><g opacity="0.7"><path d="M148.844,336.117c-0.129,0-0.257-0.007-0.384-0.021c-45.282-4.688-45.282-10.51-45.282-13.638       c0-4.496,5.104-8.22,30.023-11.781c17.47-2.5,41.616-4.387,69.823-5.46c1.914-0.104,3.489,1.293,3.569,3.051       c0.076,1.756-1.396,3.24-3.288,3.314c-59.282,2.253-86.869,7.455-92.553,10.838c2.391,1.325,10.736,4.472,38.466,7.344       c1.882,0.199,3.239,1.77,3.027,3.519C152.052,334.911,150.569,336.117,148.844,336.117z" fill="#FFFFFF"/><path d="M353.398,314.247c-0.109,0-0.216-0.004-0.326-0.013c-26.952-2.334-61.43-3.618-97.069-3.618       c-10.269,0-20.509,0.104-30.435,0.313c-1.844,0.125-3.461-1.354-3.506-3.112c-0.045-1.759,1.457-3.216,3.35-3.256       c9.979-0.209,20.27-0.314,30.591-0.314c35.848,0,70.552,1.294,97.708,3.646c1.886,0.166,3.273,1.716,3.097,3.467       C356.643,313.012,355.15,314.247,353.398,314.247z" fill="#FFFFFF"/><path d="M316.68,339.381c-1.818,0-3.333-1.326-3.425-3.03c-0.092-1.757,1.369-3.25,3.264-3.335       c11.148-0.5,21.652-1.136,31.224-1.887c39.592-3.124,50.545-7.093,53.434-8.667c-2.046-1.108-8.155-3.429-25.624-5.796       c-1.877-0.253-3.172-1.871-2.9-3.613c0.272-1.742,2.024-2.938,3.893-2.691c26.79,3.631,32.282,7.462,32.282,12.097       c0,3.329,0,10.247-60.503,15.014c-9.652,0.761-20.245,1.401-31.474,1.905C316.792,339.38,316.737,339.381,316.68,339.381z" fill="#FFFFFF"/><path d="M256.003,340.672c-25.397,0-50.501-0.651-72.593-1.885c-1.896-0.104-3.337-1.614-3.225-3.369       c0.118-1.756,1.731-3.103,3.633-2.987c21.961,1.225,46.922,1.872,72.185,1.872c13.31,0,26.489-0.177,39.181-0.522       c1.939-0.054,3.474,1.33,3.529,3.087c0.056,1.758-1.434,3.227-3.328,3.278C282.632,340.495,269.38,340.672,256.003,340.672z" fill="#FFFFFF"/></g><g opacity="0.5"><path d="M180.985,284.142c-0.083,0-0.168-0.004-0.252-0.014c-31.595-3.272-31.595-7.282-31.595-9.441       c0-2.672,2.531-5.512,20.92-8.143c12.225-1.748,29.123-3.069,48.863-3.82c1.211-0.072,2.328,0.863,2.374,2.034       c0.056,1.171-0.927,2.16-2.187,2.208c-42.085,1.602-61.338,5.317-64.993,7.697c1.497,0.891,7.113,3.174,27.126,5.247       c1.256,0.129,2.156,1.179,2.02,2.345C183.128,283.337,182.139,284.142,180.985,284.142z" fill="#FFFFFF"/><path d="M324.177,268.833c-0.071,0-0.143-0.003-0.215-0.009c-18.867-1.631-43.005-2.532-67.959-2.532       c-7.181,0-14.348,0.073-21.305,0.219c-0.02,0.001-0.035,0.001-0.035,0.001c-1.256,0-2.277-0.92-2.306-2.077       c-0.027-1.173,0.974-2.143,2.236-2.168c6.995-0.146,14.197-0.221,21.409-0.221c25.093,0,49.377,0.908,68.385,2.552       c1.257,0.11,2.184,1.144,2.066,2.312C326.344,268.009,325.348,268.833,324.177,268.833z" fill="#FFFFFF"/><path d="M298.477,286.426c-1.216,0-2.228-0.884-2.284-2.019c-0.062-1.171,0.912-2.166,2.177-2.225       c7.806-0.348,15.158-0.792,21.862-1.323c28.442-2.239,35.808-5.11,37.612-6.17c-1.295-0.752-5.441-2.442-18.14-4.16       c-1.251-0.171-2.118-1.251-1.936-2.41c0.184-1.161,1.332-1.955,2.594-1.793c19.774,2.678,22.5,5.602,22.5,8.362       c0,2.3,0,7.074-42.241,10.403c-6.761,0.535-14.173,0.982-22.032,1.333C298.553,286.425,298.513,286.426,298.477,286.426z" fill="#FFFFFF"/><path d="M256.003,287.332c-17.777,0-35.343-0.458-50.807-1.32c-1.265-0.069-2.226-1.077-2.149-2.248       c0.076-1.17,1.251-2.073,2.422-1.99c15.379,0.855,32.854,1.311,50.534,1.311c9.325,0,18.554-0.124,27.43-0.365       c1.225-0.017,2.318,0.885,2.354,2.059c0.036,1.173-0.956,2.149-2.221,2.185C274.648,287.207,265.377,287.332,256.003,287.332z" fill="#FFFFFF"/></g></g></g></g></svg>